<svg width="408" height="319" viewBox="0 0 408 319" fill="none" xmlns="http://www.w3.org/2000/svg">
<path d="M313.5 0.582842L344.5 19.1522V52.6997L313.5 68.9356L282.5 52.6997V19.1522L313.5 0.582842Z" fill="#FFF500" stroke="black"/>
<path d="M281.5 52.5687L312.5 69.3696V102.903L281.5 119.139L250.5 102.903V69.3696L281.5 52.5687Z" fill="white" stroke="black"/>
<path d="M250.5 102.569L281.5 119.37V152.909L250.5 169.93L219.5 152.909V119.37L250.5 102.569Z" fill="#AAAAAA" stroke="black"/>
<path d="M93.5 153.569L124.5 170.37V203.903L93.5 220.139L62.5 203.903V170.37L93.5 153.569Z" fill="#AAAAAA" stroke="black"/>
<path d="M156.5 153.569L187.5 170.37V203.903L156.5 220.139L125.5 203.903V170.37L156.5 153.569Z" fill="#AAAAAA" stroke="black"/>
<path d="M281.5 153.569L312.5 170.37V203.903L281.5 220.139L250.5 203.903V170.37L281.5 153.569Z" fill="#AAAAAA" stroke="black"/>
<path d="M344.5 153.569L375.5 170.37V203.903L344.5 220.139L313.5 203.903V170.37L344.5 153.569Z" fill="#AAAAAA" stroke="black"/>
<path d="M187.5 102.569L218.5 119.37V152.903L187.5 169.139L156.5 152.903V119.37L187.5 102.569Z" fill="white" stroke="black"/>
<path d="M218.5 153.569L249.5 170.37V203.903L218.5 220.139L187.5 203.903V170.37L218.5 153.569Z" fill="white" stroke="black"/>
<path d="M250.5 202.569L281.5 219.37V252.903L250.5 269.139L219.5 252.903V219.37L250.5 202.569Z" fill="white" stroke="black"/>
<path d="M281.5 251.569L312.5 268.37V301.903L281.5 318.139L250.5 301.903V268.37L281.5 251.569Z" fill="white" stroke="black"/>
<path d="M92.5 251.569L123.5 268.37V301.903L92.5 318.139L61.5 301.903V268.37L92.5 251.569Z" fill="white" stroke="black"/>
<path d="M124.5 102.569L155.5 119.37V152.909L124.5 169.93L93.5 152.909V119.37L124.5 102.569Z" fill="white" stroke="black"/>
<path d="M31.5 153.569L62.5 170.37V203.903L31.5 220.139L0.5 203.903V170.37L31.5 153.569Z" fill="white" stroke="black"/>
<path d="M219.5 52.5687L250.5 69.3696V102.903L219.5 119.139L188.5 102.903V69.3696L219.5 52.5687Z" fill="#FFF500" stroke="black"/>
<path d="M156.5 52.5687L187.5 69.3696V102.903L156.5 119.139L125.5 102.903V69.3696L156.5 52.5687Z" fill="#FFF500" stroke="black"/>
<path d="M187.5 202.569L218.5 219.37V252.903L187.5 269.139L156.5 252.903V219.37L187.5 202.569Z" fill="#FFF500" stroke="black"/>
<path d="M62.5 102.569L93.5 119.37V152.903L62.5 169.139L31.5 152.903V119.37L62.5 102.569Z" fill="#FFF500" stroke="black"/>
<path d="M93.5 52.5687L124.5 69.3696V102.903L93.5 119.139L62.5 102.903V69.3696L93.5 52.5687Z" fill="#ABA600" stroke="black"/>
<path d="M124.5 202.569L155.5 219.37V252.903L124.5 269.139L93.5 252.903V219.37L124.5 202.569Z" fill="#ABA600" stroke="black"/>
<path d="M218.5 251.569L249.5 268.37V301.903L218.5 318.139L187.5 301.903V268.37L218.5 251.569Z" fill="#ABA600" stroke="black"/>
<path d="M344.5 52.5687L375.5 69.3696V102.903L344.5 119.139L313.5 102.903V69.3696L344.5 52.5687Z" fill="#FFF500" stroke="black"/>
<path d="M375.5 102.569L406.5 119.37V152.903L375.5 169.139L344.5 152.903V119.37L375.5 102.569Z" fill="#FFF500" stroke="black"/>
<path d="M376.5 202.569L407.5 219.37V252.903L376.5 269.139L345.5 252.903V219.37L376.5 202.569Z" fill="#FFF500" stroke="black"/>
<path d="M313.5 202.569L344.5 219.37V252.903L313.5 269.139L282.5 252.903V219.37L313.5 202.569Z" fill="#FFF500" stroke="black"/>
<path d="M61.5 202.569L92.5 219.37V252.903L61.5 269.139L30.5 252.903V219.37L61.5 202.569Z" fill="#FFF500" stroke="black"/>
<path d="M312.5 102.569L343.5 119.37V152.907L312.996 169.433L281.5 152.903V119.37L312.5 102.569Z" fill="#FFF500" stroke="black"/>
<path d="M250.5 0.582842L281.5 19.1522V52.6997L250.5 68.9356L219.5 52.6997V19.1522L250.5 0.582842Z" fill="#FFF500" stroke="black"/>
<path d="M301.408 153V120.984H314.272C319.712 120.984 323.712 122.344 326.272 125.064C328.832 127.752 330.112 131.736 330.112 137.016C330.112 142.264 328.832 146.248 326.272 148.968C323.712 151.656 319.712 153 314.272 153H301.408ZM309.184 147H313.36C316.24 147 318.416 146.2 319.888 144.6C321.392 143 322.144 140.472 322.144 137.016C322.144 133.528 321.392 130.984 319.888 129.384C318.416 127.784 316.24 126.984 313.36 126.984H309.184V147Z" fill="black"/>
<path d="M340.408 204V171.984H348.184V204H340.408Z" fill="black"/>
<path d="M278.184 193.488V204H270.408V171.984H284.808C288.552 171.984 291.496 172.832 293.64 174.528C295.784 176.224 296.856 178.848 296.856 182.4C296.856 185.952 295.784 188.688 293.64 190.608C291.496 192.528 288.552 193.488 284.808 193.488H278.184ZM278.184 187.488H283.848C285.512 187.488 286.696 187.056 287.4 186.192C288.104 185.328 288.456 184.24 288.456 182.928C288.456 181.456 288.104 180.272 287.4 179.376C286.696 178.48 285.512 178.032 283.848 178.032H278.184V187.488Z" fill="black"/>
<path d="M202.408 204V171.984H210.328L219.304 184.464L228.472 171.984H236.2V204H228.424V182.304L219.016 194.88L209.848 182.352V204H202.408Z" fill="black"/>
<path d="M148.408 206V173.984H170.344V179.984H156.184V186.944H168.472V192.992H156.184V200H170.344V206H148.408Z" fill="black"/>
<path d="M93.16 206.624C90.728 206.624 88.616 206.448 86.824 206.096C85.064 205.776 83.4 205.232 81.832 204.464V197.072C83.304 198.256 84.968 199.152 86.824 199.76C88.68 200.368 90.456 200.672 92.152 200.672C93.56 200.672 94.664 200.4 95.464 199.856C96.264 199.312 96.664 198.448 96.664 197.264C96.664 196.4 96.296 195.712 95.56 195.2C94.856 194.688 93.896 194.224 92.68 193.808C91.496 193.392 90.184 192.928 88.744 192.416C87.496 192 86.296 191.456 85.144 190.784C84.024 190.112 83.096 189.2 82.36 188.048C81.656 186.896 81.304 185.36 81.304 183.44C81.304 181.68 81.736 180.032 82.6 178.496C83.464 176.928 84.808 175.664 86.632 174.704C88.456 173.744 90.792 173.264 93.64 173.264C95.592 173.264 97.24 173.44 98.584 173.792C99.96 174.144 101.384 174.672 102.856 175.376V182.816C101.736 181.952 100.44 181.168 98.968 180.464C97.528 179.76 96.008 179.36 94.408 179.264C92.936 179.2 91.704 179.44 90.712 179.984C89.72 180.528 89.224 181.376 89.224 182.528C89.224 183.424 89.496 184.128 90.04 184.64C90.584 185.152 91.32 185.584 92.248 185.936C93.208 186.256 94.296 186.608 95.512 186.992C97.24 187.504 98.792 188.112 100.168 188.816C101.544 189.52 102.632 190.464 103.432 191.648C104.232 192.832 104.632 194.384 104.632 196.304C104.632 198.256 104.184 200.016 103.288 201.584C102.392 203.12 101.08 204.352 99.352 205.28C97.656 206.176 95.592 206.624 93.16 206.624Z" fill="black"/>
<path d="M124.16 153.624C121.728 153.624 119.616 153.448 117.824 153.096C116.064 152.776 114.4 152.232 112.832 151.464V144.072C114.304 145.256 115.968 146.152 117.824 146.76C119.68 147.368 121.456 147.672 123.152 147.672C124.56 147.672 125.664 147.4 126.464 146.856C127.264 146.312 127.664 145.448 127.664 144.264C127.664 143.4 127.296 142.712 126.56 142.2C125.856 141.688 124.896 141.224 123.68 140.808C122.496 140.392 121.184 139.928 119.744 139.416C118.496 139 117.296 138.456 116.144 137.784C115.024 137.112 114.096 136.2 113.36 135.048C112.656 133.896 112.304 132.36 112.304 130.44C112.304 128.68 112.736 127.032 113.6 125.496C114.464 123.928 115.808 122.664 117.632 121.704C119.456 120.744 121.792 120.264 124.64 120.264C126.592 120.264 128.24 120.44 129.584 120.792C130.96 121.144 132.384 121.672 133.856 122.376V129.816C132.736 128.952 131.44 128.168 129.968 127.464C128.528 126.76 127.008 126.36 125.408 126.264C123.936 126.2 122.704 126.44 121.712 126.984C120.72 127.528 120.224 128.376 120.224 129.528C120.224 130.424 120.496 131.128 121.04 131.64C121.584 132.152 122.32 132.584 123.248 132.936C124.208 133.256 125.296 133.608 126.512 133.992C128.24 134.504 129.792 135.112 131.168 135.816C132.544 136.52 133.632 137.464 134.432 138.648C135.232 139.832 135.632 141.384 135.632 143.304C135.632 145.256 135.184 147.016 134.288 148.584C133.392 150.12 132.08 151.352 130.352 152.28C128.656 153.176 126.592 153.624 124.16 153.624Z" fill="black"/>
<path d="M236.408 155V122.984H243.032L257.192 142.04V122.984H264.344V155H258.488L243.56 135.464V155H236.408Z" fill="black"/>
<path d="M184.408 155V122.984H192.184V155H184.408Z" fill="black"/>
</svg>
